<svg xmlns="http://www.w3.org/2000/svg" width="107" height="23" fill="none"><path fill="#000" d="M10.732 22.126c-.213-.395-.368-.886-.464-1.474-1.122 1.185-2.58 1.778-4.373 1.778-1.698 0-3.108-.466-4.23-1.398C.556 20.1 0 18.925 0 17.506c0-1.742.678-3.08 2.034-4.011 1.367-.932 3.337-1.404 5.911-1.414h2.13v-.942c0-.76-.208-1.368-.624-1.823-.406-.456-1.052-.684-1.939-.684-.78 0-1.393.177-1.842.532-.437.354-.656.84-.656 1.458H.384c0-.952.31-1.833.93-2.644.619-.81 1.494-1.443 2.626-1.9 1.132-.465 2.403-.698 3.813-.698 2.135 0 3.828.511 5.078 1.534 1.26 1.014 1.89 2.442 1.89 4.286v7.127c.01 1.56.24 2.74.688 3.54v.26h-4.677zm-3.828-3.054c.683 0 1.313-.142 1.89-.426.577-.294 1.004-.684 1.281-1.17V14.65h-1.73c-2.317 0-3.55.76-3.7 2.279l-.016.258c0 .547.203.998.609 1.353.406.354.961.532 1.666.532zm18.58-.183c.855 0 1.55-.223 2.083-.668.534-.446.812-1.039.833-1.778h4.34a5.463 5.463 0 0 1-.96 3.07c-.63.921-1.495 1.64-2.595 2.157-1.09.507-2.296.76-3.62.76-2.478 0-4.432-.744-5.863-2.234-1.43-1.5-2.146-3.566-2.146-6.2v-.289c0-2.532.71-4.554 2.13-6.063 1.42-1.51 3.37-2.264 5.847-2.264 2.168 0 3.903.587 5.206 1.762 1.313 1.165 1.98 2.72 2.002 4.666H28.4c-.021-.851-.299-1.54-.833-2.067-.534-.537-1.239-.805-2.114-.805-1.079 0-1.896.374-2.451 1.124-.545.74-.817 1.945-.817 3.617v.456c0 1.692.272 2.907.817 3.647.545.74 1.372 1.11 2.483 1.11zm17.108 0c.854 0 1.548-.223 2.082-.668.534-.446.812-1.039.833-1.778h4.341a5.464 5.464 0 0 1-.96 3.07c-.63.921-1.496 1.64-2.596 2.157-1.089.507-2.296.76-3.62.76-2.477 0-4.432-.744-5.862-2.234-1.431-1.5-2.147-3.566-2.147-6.2v-.289c0-2.532.71-4.554 2.13-6.063 1.42-1.51 3.37-2.264 5.847-2.264 2.168 0 3.903.587 5.206 1.762 1.313 1.165 1.98 2.72 2.002 4.666h-4.34c-.022-.851-.3-1.54-.834-2.067-.534-.537-1.238-.805-2.114-.805-1.079 0-1.895.374-2.45 1.124-.545.74-.818 1.945-.818 3.617v.456c0 1.692.273 2.907.817 3.647.545.74 1.372 1.11 2.483 1.11zm20.279 1.566c-1.143 1.317-2.723 1.975-4.742 1.975-1.858 0-3.278-.506-4.26-1.52-.972-1.013-1.469-2.497-1.49-4.452V5.684h4.63v10.622c0 1.712.822 2.568 2.466 2.568 1.57 0 2.648-.516 3.236-1.55V5.684h4.645v16.442h-4.357l-.128-1.672zm16.915-6.429h-3.828v8.1h-4.806V0h8.666c2.755 0 4.88.583 6.375 1.748s2.243 2.811 2.243 4.938c0 1.51-.347 2.771-1.041 3.784-.684 1.003-1.725 1.804-3.124 2.401l5.046 9.042v.213h-5.158l-4.373-8.1zm-3.828-3.692h3.876c1.207 0 2.141-.29 2.803-.867.662-.587.993-1.393.993-2.416 0-1.043-.315-1.864-.945-2.462-.62-.597-1.575-.896-2.867-.896h-3.86v6.64zm22.441.258 2.915-4.908h4.95l-4.934 8.054 5.142 8.388h-4.966l-3.091-5.167-3.076 5.167h-4.981l5.142-8.388-4.918-8.054h4.966l2.851 4.908z"/></svg>